<?xml version="1.0" encoding="utf-8"?>
<!-- Generator: Adobe Illustrator 27.2.0, SVG Export Plug-In . SVG Version: 6.00 Build 0)  -->
<svg version="1.1" id="Layer_1" xmlns="http://www.w3.org/2000/svg" xmlns:xlink="http://www.w3.org/1999/xlink" x="0px" y="0px"
	 viewBox="0 0 1080 1080" style="enable-background:new 0 0 1080 1080;" xml:space="preserve">
<style type="text/css">
	.st0{fill:#008080;}
	.st1{fill:#F7941D;}
</style>
<g>
	<path class="st0" d="M399.8,1042.2c38.1,11.9,77.9,17.7,117.4,17.7c109,0,216.6-43.6,285.6-121.1C903.8,825.2,914,645.9,826,530.6
		c-0.1-0.1-0.2-0.2-0.3-0.4c28.8-16.7,34.9-58.3,18.2-123.4c12.6-21,31-50.9,49.4-80.9c19.9-32.5,39.9-65.1,52.5-86.1
		c0.5-0.9,1-1.9,1.3-2.8c2.6-2.7,4.8-5.4,6.5-8.1c9.6-15.3,9.9-36.5,0.6-55.2c-7.5-15.1-19.5-26.7-31.5-37.1
		C921.1,135.2,756.6-4.4,672.6,24c-15.9,5.4-36.4,19.4-43.8,55.3c-7.1,20.9-12,36.9-16.7,52.4c-6.3,20.5-12.7,41.7-24.2,74
		c-2.6,7.3,1.2,15.3,8.5,17.9c1.6,0.6,3.1,0.8,4.7,0.8c5.8,0,11.2-3.6,13.2-9.3c11.7-33,18.3-54.5,24.6-75.2
		c0.6-1.9,1.2-3.8,1.8-5.8c8.3,13.1,20.3,25.9,36.2,38.4c12.7,10,26.2,19,40.1,27.3c-2.9,0.1-5.6,0.7-8.3,2c-17,8-26.1,46-36.9,61.5
		c-13.9,20.1-31.2,37.8-50.8,52.5c-6.3-10.4-11.1-21.3-14.1-32.6c-2-7.5-9.7-12-17.1-10c-7.5,2-12,9.6-10,17.1
		c11.4,43.5,43.9,83,89.3,108.5c37.2,20.9,82.7,32.2,128.2,32.2c7.8,0,15.6-0.4,23.3-1.1c8.3,40.7,5.2,68.1-9.1,76.2
		c-24.7,14.1-57.8,18.3-98.2,12.7c-84.9-11.8-163.2-57.8-214.9-126.2c-17.4-23-27.2-42.8-31.1-62.5c-4.5-23.1,0.5-45.7,13.3-60.3
		c13.3-15.1,36.5-20.3,51.9-11.5c6.7,3.8,15.3,1.5,19.1-5.2c3.8-6.7,1.5-15.3-5.2-19.1c-27.2-15.5-64.6-8.1-86.9,17.4
		c-17,19.4-24.5,47.4-20.9,76.2c-111.5,4.2-219.3,71.1-275.4,171.1c-54.6,97.3-58.9,222.8-11.5,327.6
		C197.6,927.2,290.3,1007.9,399.8,1042.2z M385.5,643c0.9-0.9,1.6-2.2,2.5-3.2c0.3-0.3,0.5-0.7,0.8-1c0,0,0.4-0.5,0.6-0.8
		c0.1-0.1,0.2-0.3,0.2-0.3c0.3-0.3,0.5-0.7,0.8-1c0.5-0.7,1-1.4,1.5-2.2c-0.7-0.6-1.3-1.2-2-1.8c-1.2-1.1-2.3-2.2-3.4-3.5
		c-0.7-0.8-1.7-1.7-2.2-2.7c-0.6-1-0.7-2.2-0.8-3.4c-0.2-1.8,1.5-3.9,3.2-4.3c1.4-0.3,2.8-0.4,4.2,0.1c1,0.4,1.9,0.8,2.9,1.2
		c1.5,0.7,3,1.4,4.4,2.2c0.2,0.1,0.5,0.3,0.7,0.4c0.4-0.8,0.9-1.5,1.3-2.3c0.9-1.6,1.7-3.2,2.5-4.8c1.2-2.3,2.3-4.1,4.4-5.7
		c3.2-2.5,8.3,0.2,9.2,3.7c1.1,4.3-1.1,9.2-2.5,13.2c-0.5,1.3-1,2.5-1.6,3.8c1.2,0.8,2.5,1.5,3.7,2.3c4.3,2.9,9.4,5.9,9.5,11.8
		c0,3.4-2.4,6.3-5.5,7.2c-5.2,1.6-9.4-2.2-13.2-5.1c-0.8-0.6-1.6-1.4-2.4-2c-0.7,1-1.2,2.1-1.9,3c-2.8,3.8-6.2,8.7-11.1,10
		c-2.5,0.7-5.2,0-7.1-1.9c-2-2-2.3-4.4-1.9-7.1c0.2-1.4,1-2.6,1.6-3.8c0.3-0.5,0.5-0.9,0.8-1.3C385,643.6,386.8,641.7,385.5,643z
		 M422.2,822.4c0.2-1.5,1.1-2.9,1.9-4.2c0.3-0.5,0.6-1,0.9-1.5c0.4-0.5,2.4-2.7,0.9-1.1c1-1.1,1.9-2.5,2.8-3.6
		c0.3-0.4,0.6-0.7,0.9-1.1c0,0,0.5-0.6,0.7-0.9c0.1-0.2,0.2-0.3,0.3-0.4c0.3-0.4,0.6-0.8,0.9-1.2c0.6-0.8,1.2-1.6,1.7-2.5
		c-0.7-0.7-1.5-1.3-2.2-2c-1.4-1.2-2.6-2.5-3.8-3.9c-0.8-1-1.9-1.9-2.5-3c-0.7-1.2-0.8-2.5-1-3.8c-0.2-2.1,1.7-4.4,3.7-4.8
		c1.6-0.4,3.2-0.5,4.8,0.2c1.1,0.5,2.2,0.9,3.3,1.4c1.7,0.7,3.3,1.5,5,2.5c0.3,0.2,0.5,0.3,0.8,0.5c0.5-0.9,1-1.7,1.5-2.6
		c1-1.8,1.9-3.6,2.9-5.4c1.3-2.6,2.6-4.6,5-6.4c3.6-2.8,9.3,0.2,10.3,4.2c1.2,4.8-1.2,10.3-2.9,14.8c-0.5,1.5-1.2,2.9-1.8,4.3
		c1.4,0.9,2.8,1.7,4.1,2.6c4.8,3.3,10.6,6.6,10.7,13.2c0.1,3.8-2.7,7-6.2,8.1c-5.8,1.8-10.6-2.5-14.9-5.7c-0.9-0.7-1.8-1.5-2.7-2.3
		c-0.8,1.1-1.4,2.3-2.2,3.4c-3.1,4.3-7,9.8-12.5,11.3c-2.8,0.8-5.9,0-8-2.1C422.1,828.1,421.7,825.4,422.2,822.4z M649.8,780.2
		c0.7-0.7,1.3-1.7,2-2.6c0.2-0.3,0.4-0.5,0.6-0.8c0,0,0.3-0.4,0.5-0.6c0.1-0.1,0.2-0.2,0.2-0.3c0.2-0.3,0.4-0.5,0.6-0.8
		c0.4-0.6,0.8-1.2,1.2-1.7c-0.5-0.5-1-0.9-1.6-1.4c-1-0.9-1.9-1.8-2.7-2.8c-0.6-0.7-1.3-1.4-1.8-2.1c-0.5-0.8-0.6-1.8-0.7-2.7
		c-0.2-1.5,1.2-3.1,2.6-3.4c1.2-0.3,2.3-0.4,3.4,0.1c0.8,0.3,1.5,0.7,2.3,1c1.2,0.5,2.4,1.1,3.5,1.8c0.2,0.1,0.4,0.2,0.6,0.3
		c0.3-0.6,0.7-1.2,1.1-1.8c0.7-1.3,1.4-2.5,2-3.8c0.9-1.9,1.8-3.3,3.5-4.6c2.6-2,6.6,0.1,7.3,3c0.9,3.4-0.9,7.3-2,10.5
		c-0.4,1-0.8,2-1.3,3c1,0.6,2,1.2,2.9,1.8c3.4,2.3,7.5,4.7,7.6,9.4c0,2.7-1.9,5-4.4,5.8c-4.1,1.3-7.5-1.7-10.5-4.1
		c-0.7-0.5-1.3-1.1-1.9-1.6c-0.5,0.8-1,1.6-1.6,2.4c-2.2,3.1-5,7-8.8,8c-2,0.5-4.2,0-5.7-1.5c-1.6-1.6-1.8-3.5-1.5-5.7
		c0.2-1.1,0.8-2,1.3-3c0.2-0.4,0.4-0.7,0.7-1.1C649.4,780.6,650.9,779.1,649.8,780.2z M656.1,86.2c2.1-6.2,4.4-12.8,7-20.1
		c4.5-7.7,10.6-12.9,18.5-15.6c5-1.7,10.7-2.5,16.9-2.5c58.8,0,162.9,72.5,205.9,109.8c11.2,9.7,19.7,18.3,24.7,28.3
		c4.9,9.9,5.2,20.8,0.8,27.9c-8.1,12.9-30,13.7-47,12.1c-68-6.5-135-33.3-188.7-75.5C677.9,137.7,651.6,112.5,656.1,86.2z
		 M187.7,512.4c51.8-92.3,151.6-153.9,254.3-156.9c1.1,0,2.1-0.2,3.1-0.5c6.2,17.5,16.2,35.2,30.8,54.6
		c56.1,74.3,141.2,124.2,233.4,137.1c12.8,1.8,24.9,2.7,36.5,2.7c20.3,0,38.7-2.8,55.2-8.2c0.3,2.3,1.2,4.5,2.7,6.5
		c61.4,80.5,69.9,195.3,29,291.4c-29.2-41.5-135-176.8-248.4-133.6c-42.3,16.2-66.5-15.7-105.7-73.5
		c-46.7-68.9-105-154.7-233.2-126.9c-3.5,0.8-6.6,2.9-8.7,5.9c-56.9,84.6-71.7,188.1-40.6,284c29.8,91.9,98.4,167.8,191.2,213.3
		C294.6,973.1,217,902.1,177.3,814.7C133.5,717.9,137.4,602.1,187.7,512.4z"/>
	<path class="st1" d="M401.7,473.6c5.9-1.6,10.2-7.5,13.6-12.2c0.9-1.2,1.6-2.5,2.4-3.7c1,0.8,2,1.7,3,2.5c4.6,3.5,9.9,8.2,16.2,6.2
		c3.8-1.2,6.8-4.7,6.7-8.9c-0.1-7.2-6.4-10.8-11.7-14.4c-1.5-1-3-1.9-4.5-2.8c0.7-1.5,1.4-3.1,1.9-4.7c1.8-4.9,4.4-10.9,3.1-16.1
		c-1.1-4.3-7.3-7.6-11.2-4.6c-2.6,2-4,4.1-5.4,7c-1,2-2,3.9-3.1,5.8c-0.5,0.9-1.1,1.9-1.6,2.8c-0.3-0.2-0.6-0.3-0.9-0.5
		c-1.8-1-3.5-1.9-5.4-2.7c-1.2-0.5-2.4-1-3.6-1.5c-1.7-0.7-3.4-0.6-5.2-0.2c-2.1,0.5-4.2,3-4,5.2c0.2,1.4,0.3,2.9,1,4.2
		c0.7,1.2,1.8,2.2,2.7,3.3c1.3,1.5,2.7,2.9,4.2,4.3c0.8,0.7,1.6,1.4,2.4,2.1c-0.6,0.9-1.2,1.8-1.9,2.7c-0.3,0.4-0.6,0.8-0.9,1.3
		c0,0.1-0.2,0.2-0.3,0.4c-0.3,0.3-0.8,1-0.8,1c-0.3,0.4-0.7,0.8-1,1.2c-1,1.2-1.9,2.8-3,3.9c1.6-1.7-0.6,0.7-1,1.2
		c-0.4,0.5-0.7,1.1-1,1.6c-0.8,1.5-1.7,2.9-2,4.6c-0.5,3.2-0.1,6.2,2.3,8.7C395.3,473.6,398.6,474.4,401.7,473.6z"/>
	<path class="st1" d="M717.3,650.8c5.9-1.6,10.2-7.5,13.6-12.2c0.9-1.2,1.6-2.5,2.4-3.7c1,0.8,2,1.7,3,2.4c4.6,3.5,9.9,8.2,16.2,6.2
		c3.8-1.2,6.8-4.7,6.7-8.9c-0.1-7.2-6.4-10.8-11.7-14.4c-1.5-1-3-1.9-4.5-2.8c0.7-1.5,1.4-3.1,1.9-4.7c1.8-4.9,4.4-10.9,3.1-16.1
		c-1.1-4.3-7.3-7.6-11.2-4.6c-2.6,2-4,4.1-5.4,7c-1,2-2,3.9-3.1,5.8c-0.5,0.9-1.1,1.9-1.6,2.8c-0.3-0.2-0.6-0.3-0.9-0.5
		c-1.8-1-3.5-1.9-5.4-2.7c-1.2-0.5-2.4-1-3.6-1.5c-1.7-0.7-3.4-0.6-5.2-0.2c-2.1,0.5-4.2,3-4,5.2c0.2,1.4,0.3,2.9,1,4.2
		c0.7,1.2,1.8,2.2,2.7,3.3c1.3,1.5,2.7,2.9,4.2,4.3c0.8,0.7,1.6,1.4,2.4,2.1c-0.6,0.9-1.2,1.8-1.9,2.7c-0.3,0.4-0.6,0.8-0.9,1.3
		c0,0.1-0.2,0.2-0.3,0.4c-0.3,0.3-0.8,1-0.8,1c-0.3,0.4-0.7,0.8-1,1.2c-1,1.2-1.9,2.8-3,3.9c1.6-1.7-0.6,0.7-1,1.2
		c-0.4,0.5-0.7,1.1-1,1.6c-0.8,1.5-1.7,2.9-2,4.6c-0.5,3.2-0.1,6.2,2.3,8.7C710.9,650.8,714.2,651.6,717.3,650.8z"/>
	<path class="st1" d="M604.1,655.5c4.2-1.1,7.1-5.3,9.5-8.6c0.6-0.8,1.1-1.7,1.7-2.6c0.7,0.6,1.4,1.2,2.1,1.7
		c3.2,2.5,6.9,5.7,11.3,4.4c2.7-0.8,4.8-3.3,4.7-6.2c-0.1-5-4.5-7.6-8.2-10.1c-1-0.7-2.1-1.3-3.1-2c0.5-1.1,1-2.1,1.4-3.3
		c1.2-3.4,3.1-7.6,2.2-11.3c-0.8-3-5.1-5.3-7.8-3.2c-1.8,1.4-2.8,2.9-3.8,4.9c-0.7,1.4-1.4,2.7-2.2,4.1c-0.4,0.7-0.8,1.3-1.1,2
		c-0.2-0.1-0.4-0.2-0.6-0.4c-1.2-0.7-2.5-1.3-3.8-1.9c-0.8-0.4-1.7-0.7-2.5-1.1c-1.2-0.5-2.4-0.4-3.6-0.1c-1.5,0.3-3,2.1-2.8,3.7
		c0.1,1,0.2,2,0.7,2.9c0.5,0.8,1.3,1.6,1.9,2.3c0.9,1.1,1.9,2,2.9,3c0.6,0.5,1.1,1,1.7,1.5c-0.4,0.6-0.9,1.3-1.3,1.9
		c-0.2,0.3-0.4,0.6-0.7,0.9c0,0-0.1,0.2-0.2,0.3c-0.2,0.2-0.5,0.7-0.5,0.7c-0.2,0.3-0.5,0.6-0.7,0.9c-0.7,0.9-1.3,1.9-2.1,2.7
		c1.1-1.2-0.4,0.5-0.7,0.9c-0.3,0.4-0.5,0.7-0.7,1.1c-0.6,1-1.2,2-1.4,3.2c-0.4,2.3-0.1,4.4,1.6,6.1
		C599.6,655.5,601.9,656.1,604.1,655.5z"/>
</g>
</svg>
