<?xml version="1.0" encoding="utf-8"?>
<!-- Generator: Adobe Illustrator 27.2.0, SVG Export Plug-In . SVG Version: 6.00 Build 0)  -->
<svg version="1.1" id="Layer_1" xmlns="http://www.w3.org/2000/svg" xmlns:xlink="http://www.w3.org/1999/xlink" x="0px" y="0px"
	 viewBox="0 0 1080 1080" style="enable-background:new 0 0 1080 1080;" xml:space="preserve">
<style type="text/css">
	.st0{fill:#008080;}
	.st1{fill:#F7941D;}
</style>
<g>
	
		<ellipse transform="matrix(0.7071 -0.7071 0.7071 0.7071 99.0727 413.077)" class="st0" cx="548.2" cy="86.9" rx="71.9" ry="71.9"/>
	<path class="st0" d="M631.3,136.4L631.3,136.4c-13.6,32.5-45.7,55.4-83.2,55.4c-12.8,0-24.9-2.7-36-7.5
		c-54.9-22-85-88.1-88.5-141.5c-0.8-11.3-10-20.2-21.3-20.2l0,0c-11.8,0-21.3,9.6-21.4,21.5c-0.9,99.5,42.7,179.6,42.7,179.6
		c-138.8,133.7-13.3,290.8-13.3,290.8C479,228.3,677.1,227.6,738.8,234.7l42.7-50.5C712.2,135,631.3,136.4,631.3,136.4z"/>
	<path class="st1" d="M214,342.4c19.9-34.4,8.1-78.4-26.3-98.3c-34.4-19.9-78.4-8.1-98.3,26.3c-19.9,34.4-8.1,78.4,26.3,98.3
		C150.2,388.6,194.2,376.8,214,342.4z"/>
	<path class="st1" d="M236.2,259.1L236.2,259.1c21.4,28.1,25.1,67.3,6.4,99.7c-6.4,11.1-14.8,20.3-24.5,27.4
		c-46.5,36.5-118.8,29.5-166.8,5.9c-10.2-5-22.5-1.5-28.2,8.4l0,0c-5.9,10.3-2.3,23.3,7.9,29.3c85.7,50.5,176.9,52.8,176.9,52.8
		c46.4,187,245.2,156.9,245.2,156.9C239.6,436.9,338,265.1,375,215.2L352.6,153C275.4,188.3,236.2,259.1,236.2,259.1z"/>
	<path class="st0" d="M205.9,723.5c-19.9-34.4-63.9-46.2-98.3-26.3C73.2,717,61.4,761,81.3,795.4c19.9,34.4,63.9,46.2,98.3,26.3
		C213.9,801.9,225.7,757.9,205.9,723.5z"/>
	<path class="st0" d="M144.8,662.7L144.8,662.7c35-4.5,70.8,11.9,89.5,44.4c6.4,11.1,10.1,22.9,11.5,34.9
		c8.4,58.5-33.8,117.7-78.3,147.4c-9.5,6.3-12.5,18.7-6.9,28.6l0,0c5.9,10.3,19,13.6,29.3,7.8c86.6-49,134.2-126.8,134.2-126.8
		C509.4,852.3,582.7,665,582.7,665c-282.2,83.7-381.8-87.5-406.5-144.6l-65.1-11.7C103.1,593.3,144.8,662.7,144.8,662.7z"/>
	
		<ellipse transform="matrix(0.8682 -0.4962 0.4962 0.8682 -422.6521 394.7583)" class="st1" cx="531.8" cy="993.1" rx="71.9" ry="71.9"/>
	<path class="st1" d="M448.7,943.6L448.7,943.6c13.6-32.5,45.7-55.4,83.2-55.4c12.8,0,24.9,2.7,36,7.5c54.9,22,85,88.1,88.5,141.5
		c0.8,11.3,10,20.2,21.3,20.2l0,0c11.8,0,21.3-9.6,21.4-21.5c0.9-99.5-42.7-179.6-42.7-179.6c138.8-133.7,13.3-290.8,13.3-290.8
		C601,851.7,402.9,852.4,341.2,845.3l-42.7,50.5C367.8,945,448.7,943.6,448.7,943.6z"/>
	<path class="st0" d="M866,737.6c-19.9,34.4-8.1,78.4,26.3,98.3c34.4,19.9,78.4,8.1,98.3-26.3c19.9-34.4,8.1-78.4-26.3-98.3
		C929.8,691.4,885.8,703.2,866,737.6z"/>
	<path class="st0" d="M843.8,820.9L843.8,820.9c-21.4-28.1-25.1-67.3-6.4-99.7c6.4-11.1,14.8-20.3,24.5-27.4
		c46.5-36.5,118.8-29.5,166.8-5.9c10.2,5,22.5,1.5,28.2-8.4l0,0c5.9-10.3,2.3-23.3-7.9-29.3c-85.7-50.5-176.9-52.8-176.9-52.8
		c-46.4-187-245.2-156.9-245.2-156.9C840.4,643.1,742,814.9,705,864.8l22.4,62.2C804.6,891.7,843.8,820.9,843.8,820.9z"/>
	<path class="st1" d="M874.1,356.5c19.9,34.4,63.9,46.2,98.3,26.3c34.4-19.9,46.2-63.9,26.3-98.3c-19.9-34.4-63.9-46.2-98.3-26.3
		C866.1,278.1,854.3,322.1,874.1,356.5z"/>
	<path class="st1" d="M935.2,417.3L935.2,417.3c-35,4.5-70.8-11.9-89.5-44.3c-6.4-11.1-10.1-22.9-11.5-34.9
		c-8.4-58.5,33.8-117.7,78.3-147.4c9.5-6.3,12.5-18.7,6.9-28.6l0,0c-5.9-10.3-19-13.6-29.3-7.8c-86.6,49-134.2,126.8-134.2,126.8
		C570.6,227.7,497.3,415,497.3,415c282.2-83.7,381.8,87.5,406.5,144.6l65.1,11.7C976.9,486.7,935.2,417.3,935.2,417.3z"/>
</g>
</svg>
