<?xml version="1.0" encoding="utf-8"?>
<!-- Generator: Adobe Illustrator 27.2.0, SVG Export Plug-In . SVG Version: 6.00 Build 0)  -->
<svg version="1.1" xmlns="http://www.w3.org/2000/svg" xmlns:xlink="http://www.w3.org/1999/xlink" x="0px" y="0px"
	 viewBox="0 0 1080 1080" style="enable-background:new 0 0 1080 1080;" xml:space="preserve">
<style type="text/css">
	.st0{stroke:#000000;stroke-width:3;stroke-linecap:round;stroke-linejoin:round;stroke-miterlimit:10;}
</style>
<g id="EC_WORDS">
	<g>
		<g>
			<path d="M114.6,553c0.2-10.6-2.9-18.8-9.3-24.5c-6.4-5.8-15.5-8.7-27.3-8.9c-12-0.2-21.3,2.8-27.8,8.9
				c-6.6,6.2-10,14.5-10.1,25.1c-0.1,5.6,0.6,10.4,2,14.4c1.4,4,3.1,7.7,5,11.3c-2,2.3-4.3,4.1-7,5.4c-2.7,1.3-5.9,1.9-9.4,1.8
				c-5.6-0.1-10.4-3.3-14.2-9.6c-3.8-6.3-5.6-15.9-5.4-28.7c0.2-9.2,1.6-17.9,4.4-26c2.8-8.1,6.9-15.1,12.4-21.1
				c5.5-6,12.5-10.6,20.9-14c8.4-3.4,18.4-5,29.9-4.8c10.7,0.2,20.2,2,28.3,5.5c8.1,3.5,15,8.2,20.5,14.2
				c5.5,5.9,9.7,12.9,12.5,20.8c2.8,7.9,4.1,16.3,3.9,25.3c-0.2,12.7-2.4,22.5-6.7,29.3c-4.3,6.9-9.6,10.3-16.1,10.2
				c-3.6-0.1-6.7-1-9.3-2.8c-2.6-1.8-4.6-3.9-6.1-6.3c2.4-3.5,4.5-7.3,6.2-11.4C113.6,563.1,114.5,558.4,114.6,553z"/>
		</g>
		<g>
			<path d="M86.2,713.3l-36.7,15c-1-1.2-2.2-3.3-3.9-6.1c-1.6-2.8-3-5.7-4.2-8.7c-1.2-2.9-2-5.6-2.5-8c-0.5-2.4-0.4-4.6,0.1-6.5
				c0.5-1.9,1.7-3.7,3.4-5.3c1.7-1.6,4.2-3.1,7.6-4.4l90.1-36.9c2.7-1.1,5-1.2,7.1-0.3c2.1,0.9,4.1,2.4,6,4.6
				c3.3,3.7,6.5,8.3,9.5,13.7c3,5.5,5.9,11.4,8.6,17.9c7.2,17.6,8.9,32.4,5.2,44.3c-3.7,12-11.9,20.5-24.5,25.7
				c-7.9,3.2-15.5,4-22.8,2.2c-7.3-1.8-13.6-4.9-19-9.2c-4.4,7.2-8.4,14.1-12,20.8c-3.7,6.7-7.2,12.3-10.6,16.6
				c-5,0.6-9.4-0.4-13.1-2.8c-3.7-2.4-6.5-5.7-8.2-9.9c-1.1-2.8-1.8-5.4-2-7.7c-0.2-2.3,0-4.5,0.5-6.5c0.5-2,1.3-4,2.5-5.9
				c1.1-2,2.4-3.9,3.9-5.8l19.2-26.6L86.2,713.3z M116.6,714.9c2,4.8,4.8,8.2,8.4,9.9c3.6,1.8,7.9,1.7,12.7-0.3c4.8-2,7.9-5,9.1-9.2
				c1.2-4.1,0.4-9.6-2.3-16.3c-0.8-1.9-1.5-3.4-2.1-4.5c-0.6-1.1-1.3-2.3-2.1-3.6l-28.7,11.8L116.6,714.9z"/>
		</g>
		<g>
			<path d="M214,809.2c4.2-4.2,8.7-6.3,13.6-6.3c4.9,0,9.4,2.1,13.6,6.2l48.4,48.1c-0.4,1.8-1.2,3.8-2.4,6.1
				c-1.2,2.3-2.8,4.4-4.7,6.4c-3.7,3.7-7.1,5.6-10.3,5.5c-3.2,0-6.1-1.4-8.7-4l-30.9-30.7L219,854.1l33,32.8c-0.4,1.8-1.2,3.8-2.3,6
				c-1.2,2.2-2.7,4.3-4.7,6.3c-3.7,3.7-7.1,5.6-10.2,5.6c-3.1,0-6-1.3-8.6-3.9l-27-26.8l-15.3,15.4l37.7,37.4
				c-0.4,1.8-1.2,3.8-2.4,6.1c-1.2,2.3-2.8,4.4-4.7,6.4c-3.7,3.7-7.1,5.6-10.4,5.6s-6.1-1.3-8.8-3.9l-42.8-42.5
				c-4.2-4.2-6.3-8.7-6.3-13.6c0-4.9,2.1-9.4,6.2-13.6L214,809.2z"/>
		</g>
		<g>
			<path d="M370.6,909.6c2.7-0.4,6.5-0.4,11.3,0.2c4.9,0.6,9.6,1.7,14.1,3.5c6.4,2.5,11.7,5.6,16,9.4c4.2,3.8,6.3,7.9,6.1,12.5
				c-0.3,7.6-0.8,16.3-1.6,26.2s-1.6,20.1-2.6,30.6c-1,10.5-2,20.8-3,31c-1,10.2-1.9,19.2-2.8,27c-2.2,1.2-5.1,1.7-8.6,1.6
				c-3.5-0.1-7.4-1-11.6-2.6c-3.1-1.2-5.6-2.5-7.5-3.8c-1.9-1.3-3.4-2.8-4.3-4.3c-0.9-1.6-1.5-3.3-1.7-5.3c-0.2-2-0.2-4.2,0-6.6
				l1.7-14.6l-34.9-13.6c-2.5,3.5-5.1,7-7.7,10.7c-2.6,3.7-5.2,7.3-7.7,10.7c-2.1-0.1-4.2-0.3-6.3-0.6c-2.2-0.3-4.7-1-7.5-2.1
				c-6.5-2.6-11-5.6-13.2-9c-2.3-3.5-2.6-7.2-1.1-11.2c0.7-1.8,1.7-3.5,2.9-5.1c1.2-1.6,2.6-3.5,4.2-5.7c2.2-3.1,5.2-6.9,8.8-11.4
				c3.6-4.5,7.5-9.4,11.8-14.6c4.3-5.2,8.7-10.5,13.3-16c4.6-5.4,9-10.6,13.1-15.4c4.1-4.8,7.8-9.1,11.1-12.9
				C366.2,914.4,368.8,911.6,370.6,909.6z M384,943.4c-3.9,4.7-8.3,9.9-13.1,15.6c-4.8,5.7-9.5,11.7-13.9,17.8l23.9,9.3
				c0.9-7.6,1.7-15.1,2.4-22.5c0.7-7.3,1.3-13.9,1.8-19.8L384,943.4z"/>
		</g>
		<g>
			<path d="M498.3,972c-1-1.5-1.9-3.5-2.8-6.2c-0.9-2.6-1.3-5.4-1.4-8.2c-0.1-5.4,1-9.2,3.4-11.6c2.4-2.4,5.5-3.6,9.3-3.7l90.1-1.6
				c1,1.5,1.9,3.6,2.8,6.2c0.9,2.6,1.3,5.4,1.4,8.2c0.1,5.4-1,9.3-3.4,11.6c-2.4,2.4-5.5,3.6-9.3,3.7l-22.9,0.4l1.7,95.5
				c-1.5,0.4-3.9,0.9-7.1,1.4c-3.2,0.5-6.4,0.7-9.6,0.8c-3.2,0.1-6-0.1-8.4-0.6c-2.4-0.4-4.5-1.3-6.1-2.5c-1.7-1.2-2.9-2.9-3.8-5.1
				c-0.9-2.2-1.3-5.1-1.4-8.7l-1.5-80.2L498.3,972z"/>
		</g>
		<g>
			<path d="M736.9,1028.8c-1.3,0.9-3.4,2.1-6.3,3.6c-2.9,1.5-5.8,2.8-8.8,3.9c-3,1.1-5.7,1.8-8.1,2.2c-2.4,0.4-4.6,0.3-6.6-0.3
				c-2-0.6-3.7-1.8-5.3-3.6c-1.5-1.8-2.9-4.4-4.1-7.7l-37.4-102.5c1.3-0.8,3.5-2,6.4-3.5c2.9-1.6,5.8-2.9,8.7-3.9
				c3-1.1,5.7-1.8,8.1-2.2c2.4-0.4,4.6-0.3,6.6,0.3c2,0.6,3.7,1.8,5.3,3.6c1.5,1.8,2.9,4.4,4.1,7.7L736.9,1028.8z"/>
		</g>
		<g>
			<path d="M794.1,934.2c-7.1-8.1-12-16.4-14.9-24.8c-2.9-8.5-3.9-16.7-3.2-24.8c0.8-8.1,3.2-15.8,7.3-23.1
				c4.1-7.4,9.6-14.1,16.6-20.2c7-6.1,14.4-10.6,22.3-13.6c7.9-3,15.9-4.4,24-4c8.1,0.3,16.2,2.5,24.2,6.5c8,4,15.5,10.1,22.5,18.2
				c7.1,8.1,12.1,16.4,15,24.9c3,8.5,4.1,16.7,3.3,24.8c-0.8,8.1-3.2,15.8-7.3,23.2c-4.1,7.4-9.7,14.2-16.8,20.4
				c-7.1,6.1-14.6,10.7-22.6,13.7c-8,3-16,4.3-24.1,3.8c-8.1-0.5-16.1-2.7-24-6.8C808.5,948.3,801.1,942.2,794.1,934.2z
				 M822.2,909.8c8.2,9.5,16.3,14.9,24.2,16.2c7.9,1.3,15.1-0.8,21.5-6.4c6.5-5.7,9.7-12.6,9.5-20.6c-0.2-8-4.4-16.8-12.7-26.2
				c-8.1-9.4-16.1-14.7-24-16.1c-7.9-1.4-15.1,0.8-21.6,6.5c-6.4,5.6-9.6,12.4-9.5,20.4C809.8,891.6,814,900.4,822.2,909.8z"/>
		</g>
		<g>
			<path d="M1041.9,694.1c1,2.5,1.3,5.7,0.8,9.4c-0.5,3.8-1.7,8-3.7,12.7c-2,4.7-4.6,8.8-7.8,12.4c-3.2,3.6-8,5.6-14.5,6l-46.4,2.4
				c-4.7,0.2-9.2,0.4-13.3,0.4c-4.1,0-8.9,0-14.2-0.2l-0.3,1.2c7.1,2.4,14.2,5.1,21.3,8.1c7.1,3,14.1,5.9,21,8.8l29.5,12.6
				c-0.2,1.6-0.7,3.8-1.6,6.9c-0.8,3-1.8,5.9-3,8.7c-1.2,2.8-2.4,5.2-3.7,7.2c-1.3,2-2.8,3.4-4.6,4.4c-1.7,0.9-3.7,1.3-6,1.2
				c-2.3-0.1-5-0.8-8.2-2.1l-95.1-40.5c-1.8-2.9-2.5-6.4-2.2-10.6c0.3-4.2,1.3-8.4,3.1-12.6c2-4.7,4.6-8.8,7.9-12.5
				c3.3-3.6,8-5.6,14.3-5.9l46.5-2.6c4.7-0.2,9.2-0.4,13.3-0.4c4.1,0,8.9,0,14.2,0.2l0.2-1c-7.1-2.4-14-5-20.9-7.8
				c-6.9-2.8-13.8-5.6-20.6-8.6l-30.8-13.1c0.2-1.6,0.7-3.8,1.6-6.9c0.8-3,1.8-5.9,3-8.7c2.4-5.6,5.2-9.4,8.4-11.5
				c3.2-2.1,7.9-1.8,14.1,0.9L1041.9,694.1z"/>
		</g>
		<g>
			<path d="M1015.8,542.2c-2,6.1-4,11.6-6,16.6c-2.1,5-4.6,9.3-7.5,12.9c-3,3.6-6.5,6.5-10.7,8.5c-4.2,2.1-9.3,3.1-15.3,3.2
				c-11.7,0.2-21.1-4.2-28.3-13.1c-7.2-8.9-10.9-21.5-11.2-37.7c-0.1-5.9,0.2-11.4,1-16.6c0.7-5.1,1.9-9.5,3.6-13.2
				c1.7-3.7,3.8-6.6,6.5-8.7c2.7-2.1,5.8-3.2,9.4-3.3c3.6-0.1,6.7,0.7,9.2,2.3c2.6,1.6,4.8,3.6,6.6,5.9c-1.9,3.1-3.5,7.2-4.9,12.3
				c-1.4,5.1-2,10.7-1.9,16.8c0.1,6.2,1,10.7,2.8,13.6c1.8,2.9,4,4.3,6.6,4.2c2.1,0,3.7-1,5-2.8c1.3-1.8,2.4-4.5,3.5-8.1l3.3-11
				c3.9-13,9-23.1,15.3-30.1c6.3-7.1,15-10.7,26-10.9c11.7-0.2,21.3,4.3,28.6,13.4c7.4,9.1,11.2,22.6,11.5,40.5
				c0.1,6.3-0.3,12.2-1.3,17.7c-0.9,5.5-2.4,10.2-4.3,14.3c-1.9,4.1-4.4,7.3-7.3,9.6c-2.9,2.3-6.3,3.5-10.2,3.6
				c-4,0.1-7.4-1-10.3-3.3c-2.9-2.3-5.1-4.8-6.6-7.5c3-3.9,5.5-8.7,7.6-14.3c2.1-5.6,3.1-11.7,3-18.3c-0.1-6.7-1.2-11.5-3.3-14.2
				c-2.1-2.7-4.5-4.1-7.3-4c-2.8,0-4.8,1.2-6.2,3.4c-1.4,2.2-2.8,5.4-4.1,9.4L1015.8,542.2z"/>
		</g>
	</g>
	<g>
		<g>
			<path d="M127.2,236.8c-4.4-3.9-6.8-8.3-7.1-13.2c-0.3-4.9,1.5-9.5,5.4-14l45-51.2c1.8,0.3,3.8,0.9,6.2,2c2.4,1.1,4.6,2.5,6.6,4.3
				c3.9,3.5,6,6.8,6.1,9.9c0.2,3.2-1,6.1-3.5,8.9l-28.8,32.8l14.4,12.7l30.7-34.9c1.8,0.3,3.8,0.9,6.1,1.9c2.3,1,4.5,2.4,6.6,4.3
				c3.9,3.5,6,6.7,6.2,9.9c0.2,3.1-0.9,6.1-3.4,8.9l-25.1,28.6l16.3,14.3l35.1-39.9c1.8,0.3,3.8,0.9,6.2,2c2.4,1.1,4.6,2.5,6.6,4.3
				c3.9,3.5,6,6.8,6.2,10c0.2,3.2-0.9,6.2-3.4,9L220,292.8c-3.9,4.5-8.3,6.8-13.2,7.1c-4.9,0.3-9.5-1.5-14-5.4L127.2,236.8z"/>
		</g>
		<g>
			<path d="M385.7,133.4c-1.1,2.1-2.7,4.1-5,6c-2.2,1.9-5.1,3.6-8.5,5.1c-4.6,1.9-8.6,3-12,3.1c-3.5,0.1-6.2-1-8.3-3.4
				c-8.3-9.6-15.1-17.4-20.3-23.4c-5.2-5.9-9.6-11.2-13.1-15.9l-0.9,0.4c2.8,7.6,5.4,14.6,7.8,20.8c2.4,6.2,4.8,12.3,7.3,18.1
				c2.4,5.9,4.8,11.8,7.1,17.8c2.3,6,4.9,12.8,7.6,20.1c-1.4,1.3-3.3,2.8-5.8,4.4c-2.5,1.6-5,2.9-7.7,4.1
				c-5.6,2.4-10.3,3.3-14.2,2.9c-3.9-0.5-6.8-3-8.8-7.7l-35.7-99.3c0.3-2.1,1.8-4.8,4.4-8.2c2.6-3.4,7-6.4,13.2-9
				c6.7-2.9,12.4-4.1,17.1-3.6c4.7,0.5,8.9,2.7,12.7,6.6c2.4,2.6,5.2,5.5,8.2,8.9c3,3.4,6.1,6.9,9.2,10.5c3.1,3.6,6.2,7.2,9.2,10.8
				c3,3.6,5.7,6.8,8.2,9.7l1-0.4c-1.5-11.9-2.8-23.5-4-34.8c-1.2-11.2-2-20.8-2.3-28.6c1.5-1.8,3.5-3.7,6.2-5.7
				c2.7-2,5.9-3.7,9.5-5.3c6.2-2.6,11.7-3.9,16.4-3.7c4.7,0.2,8.1,1.8,10.2,5c1.6,2.3,3.8,6,6.6,11c2.8,5,5.9,10.7,9.4,17
				c3.4,6.3,7,13,10.8,20.1c3.8,7.1,7.4,13.9,10.8,20.4c3.5,6.5,6.6,12.6,9.4,18c2.8,5.5,4.9,9.7,6.3,12.7c-1.6,2.2-3.5,4.1-5.6,5.6
				c-2.1,1.6-5,3.1-8.7,4.7c-4.8,2.1-9.2,2.9-13.2,2.7c-4-0.2-7.1-2.7-9.5-7.4c-6.6-13.5-12.4-25.7-17.3-36.7
				c-4.9-10.9-9.1-20.1-12.7-27.4l-0.9,0.4c0.8,5.5,1.6,12.5,2.4,21C383,109.4,384.1,120.3,385.7,133.4z"/>
		</g>
		<g>
			<path d="M552.8,95.9l-2.3,39.6c-1.5,0.3-3.9,0.6-7.2,0.8c-3.3,0.2-6.5,0.2-9.6,0.1c-3.2-0.2-5.9-0.6-8.3-1.2
				c-2.4-0.6-4.3-1.6-5.8-2.9c-1.5-1.3-2.6-3.1-3.3-5.4c-0.7-2.2-0.9-5.2-0.7-8.7l5.6-97.2c0.2-2.9,1.1-5.1,2.8-6.6
				c1.7-1.5,3.9-2.6,6.7-3.4c4.8-1.4,10.3-2.3,16.5-2.7c6.2-0.4,12.9-0.4,19.9,0c19,1.1,33.1,5.9,42.2,14.5
				c9.2,8.5,13.4,19.6,12.6,33.2c-0.5,8.5-3.1,15.7-7.9,21.5c-4.8,5.8-10.3,10.2-16.5,13.1c4.6,7,9.1,13.6,13.5,19.8
				c4.5,6.2,7.9,11.8,10.4,16.7c-1.7,4.7-4.4,8.3-8.2,10.6c-3.8,2.3-8,3.4-12.5,3.1c-3-0.2-5.6-0.7-7.8-1.5c-2.2-0.8-4-1.9-5.6-3.2
				c-1.6-1.3-3-2.9-4.3-4.8c-1.3-1.9-2.5-3.9-3.6-6l-15.7-28.9L552.8,95.9z M567.4,69.2c5.2,0.3,9.4-0.8,12.6-3.3
				c3.2-2.5,4.9-6.4,5.2-11.6c0.3-5.2-1.2-9.3-4.4-12.2c-3.2-2.9-8.5-4.5-15.8-4.9c-2.1-0.1-3.7-0.1-5-0.1c-1.2,0.1-2.6,0.2-4.2,0.4
				l-1.8,30.9L567.4,69.2z"/>
		</g>
		<g>
			<path d="M736.5,185.5c-1.5-0.3-3.8-1-6.9-2c-3-1-5.9-2.2-8.6-3.5c-5.7-2.8-9.5-5.8-11.4-9.1c-1.9-3.3-1.3-8.1,1.7-14.2l12.3-25.1
				c-0.9-6.1-1.7-12.8-2.6-20.1c-0.9-7.3-1.6-14.7-2.2-22.3c-0.6-7.5-1-14.8-1.2-21.9c-0.2-7.1-0.1-13.4,0.3-19
				c2.7-1.4,5.9-2.4,9.6-2.9c3.7-0.5,7.6,0.3,11.7,2.3c4.8,2.4,8.3,5.3,10.3,8.7c2.1,3.5,3.1,8.6,3.2,15.4l0.2,38.5l1.1,0.5
				c3.6-3,6.8-5.7,9.7-8.3c2.8-2.5,5.7-5.1,8.4-7.6c2.8-2.6,5.7-5.2,8.7-7.9c3-2.7,6.5-5.9,10.4-9.5c2.8,0,5.7,0.3,8.7,1
				c3,0.7,5.8,1.7,8.3,2.9c4.3,2.1,7.5,5.1,9.4,8.8c1.9,3.8,1.7,8-0.5,12.5c-0.7,1.5-1.9,3.1-3.6,4.9c-1.7,1.8-4.6,4.3-8.9,7.5
				s-10.4,7.4-18.2,12.6c-7.8,5.2-18.3,11.9-31.3,20.1L736.5,185.5z"/>
		</g>
		<g>
			<path d="M876.8,235.1c-2.5-5.9-4.5-11.4-6.2-16.6c-1.7-5.1-2.6-10-2.7-14.7c-0.1-4.7,0.8-9.2,2.6-13.5c1.8-4.3,5-8.4,9.6-12.4
				c8.8-7.7,18.8-10.6,30-8.4c11.2,2.1,22.2,9.3,33,21.5c3.9,4.4,7.2,8.9,10,13.2c2.7,4.4,4.7,8.5,5.8,12.4
				c1.1,3.9,1.4,7.5,0.7,10.8c-0.7,3.3-2.3,6.2-5,8.5c-2.7,2.4-5.5,3.8-8.5,4.2c-3,0.4-6,0.4-8.8-0.2c-0.6-3.5-2-7.7-4.3-12.5
				c-2.3-4.8-5.4-9.4-9.4-14c-4.1-4.7-7.7-7.5-11-8.5c-3.2-1-5.8-0.7-7.8,1c-1.6,1.4-2.2,3.2-2,5.4c0.2,2.2,1.1,5,2.6,8.4l4.6,10.5
				c5.5,12.4,8.1,23.4,7.9,32.9c-0.2,9.5-4.4,17.8-12.7,25.1c-8.8,7.7-18.9,10.5-30.5,8.4c-11.5-2.1-23.2-9.9-35.1-23.4
				c-4.2-4.8-7.7-9.5-10.5-14.3c-2.8-4.8-4.8-9.3-6-13.7c-1.2-4.4-1.4-8.4-0.7-12.1c0.7-3.7,2.5-6.8,5.4-9.3c3-2.6,6.3-4,10-4.1
				c3.7-0.1,7,0.4,9.9,1.4c0.3,4.9,1.4,10.2,3.5,15.8c2,5.6,5.2,10.9,9.6,15.9c4.5,5.1,8.4,7.9,11.8,8.7c3.4,0.7,6.1,0.1,8.2-1.7
				c2.1-1.8,2.9-4,2.5-6.6c-0.4-2.6-1.4-5.9-3-9.8L876.8,235.1z"/>
		</g>
	</g>
	<g>
		<g>
			<g>
				<circle cx="95.3" cy="364.8" r="27.2"/>
			</g>
		</g>
		<g>
			<g>
				<circle cx="985" cy="367" r="27.2"/>
			</g>
		</g>
	</g>
</g>
<g id="Layer_5">
	<g>
		<path class="st0" d="M540.2,200.6c-188.6,0-341.5,152.9-341.5,341.5s152.9,341.5,341.5,341.5s341.5-152.9,341.5-341.5
			S728.8,200.6,540.2,200.6z M383.5,408.9c31.3-54.8,85.9-88.1,144.2-94.1c37.8-4,77.3,3.5,112.8,23.7c13.1,7.4,24.9,16.2,35.5,26.1
			c2.2,2.1,4.5,4.2,6.6,6.4c10.5,9.9,22.4,18.6,35.5,26.1c31.6,18,66.2,25.9,100.1,24.6c-26.3,18.4-56.9,29.7-88.5,33
			c-37.6,4-76.8-3.4-112.1-23.3c-90.6-51.1-205.2-22.2-256.7,68.2l-2,3.5C358.6,471.2,366.6,438.7,383.5,408.9z M568.4,831.4
			l-28.3-20.5l-28.3,20.5l10.8-33.2l-28.3-20.5h35l10.8-33.2l10.8,33.2h35l-28.3,20.5L568.4,831.4z M690.4,711.8
			c-37.6,4-76.8-3.3-112.1-23.3c-90.6-51.1-205.2-22.2-256.7,68.2l-2,3.5c-0.2-31.9,7.8-64.4,24.8-94.2
			c31.3-54.8,85.9-88.1,144.2-94.1c37.8-4,77.3,3.5,112.8,23.7c13.1,7.4,24.9,16.2,35.5,26.1c2.2,2.1,4.4,4.2,6.5,6.4
			c10.5,9.9,22.4,18.6,35.5,26.1c31.6,18,66.2,25.9,100.1,24.6C752.6,697.2,722,708.4,690.4,711.8z M709.5,583.1
			c-37.6,4-76.8-3.4-112.1-23.3c-90.6-51.2-205.2-22.3-256.7,68.2l-2,3.5c-0.2-32,7.8-64.4,24.8-94.2c31.3-54.8,85.9-88,144.2-94.1
			c37.9-4,77.3,3.5,112.8,23.7c13.1,7.4,24.9,16.2,35.5,26.1c2.2,2.1,4.4,4.2,6.5,6.4c10.5,9.9,22.4,18.6,35.5,26.1
			c31.6,18,66.2,25.9,100.1,24.6C771.8,568.5,741.2,579.7,709.5,583.1z"/>
	</g>
</g>
</svg>
