<?xml version="1.0" encoding="utf-8"?>
<!-- Generator: Adobe Illustrator 27.2.0, SVG Export Plug-In . SVG Version: 6.00 Build 0)  -->
<svg version="1.1" id="Layer_5" xmlns="http://www.w3.org/2000/svg" xmlns:xlink="http://www.w3.org/1999/xlink" x="0px" y="0px"
	 viewBox="0 0 1080 1080" style="enable-background:new 0 0 1080 1080;" xml:space="preserve">
<style type="text/css">
	.st0{fill:#008080;}
	.st1{fill:#FFFFFF;stroke:#FFFFFF;stroke-width:3;stroke-linecap:round;stroke-linejoin:round;stroke-miterlimit:10;}
</style>
<path class="st0" d="M960.3,1080H119.7C53.6,1080,0,1026.4,0,960.3V119.7C0,53.6,53.6,0,119.7,0h840.5
	c66.1,0,119.7,53.6,119.7,119.7v840.5C1080,1026.4,1026.4,1080,960.3,1080z"/>
<path class="st1" d="M540,158.1c-210.9,0-381.9,171-381.9,381.9s171,381.9,381.9,381.9s381.9-171,381.9-381.9S750.9,158.1,540,158.1
	z M364.9,391.1c35-61.3,96-98.5,161.3-105.2c42.3-4.5,86.4,3.9,126.1,26.5c14.6,8.3,27.9,18.1,39.6,29.2c2.5,2.3,5,4.7,7.3,7.2
	c11.8,11,25,20.9,39.6,29.2c35.3,20.1,74,28.9,111.9,27.5c-29.4,20.6-63.6,33.2-99,36.9c-42.1,4.5-85.9-3.7-125.4-26.1
	c-101.3-57.2-229.4-24.9-287,76.2l-2.2,4C337,460.7,345.9,424.4,364.9,391.1z M571.6,863.5L540,840.6l-31.6,22.9l12.1-37.2
	l-31.6-22.9h39.1l12.1-37.2l12.1,37.2h39.1l-31.6,22.9L571.6,863.5z M708,729.7c-42.1,4.5-85.9-3.7-125.4-26.1
	c-101.3-57.2-229.4-24.9-287,76.2l-2.2,4c-0.1-35.7,8.7-72.1,27.7-105.3c34.9-61.3,96-98.5,161.2-105.3
	c42.3-4.5,86.4,3.9,126.1,26.5c14.6,8.3,27.9,18.1,39.7,29.2c2.4,2.3,5,4.7,7.3,7.2c11.8,11,25,20.9,39.6,29.2
	c35.3,20.1,74,28.9,111.9,27.5C777.6,713.4,743.3,726,708,729.7z M729.4,585.8c-42,4.5-85.9-3.7-125.4-26
	c-101.3-57.2-229.4-24.9-287.1,76.2l-2.2,4c-0.1-35.7,8.7-72.1,27.7-105.4c35-61.3,96.1-98.5,161.3-105.2
	c42.3-4.5,86.4,3.9,126.1,26.5c14.6,8.3,27.9,18.1,39.6,29.2c2.4,2.3,5,4.7,7.3,7.2c11.8,11.1,25,20.9,39.6,29.2
	c35.3,20.1,74,28.9,111.9,27.5C799,569.5,764.8,582.1,729.4,585.8z"/>
</svg>
