<?xml version="1.0" encoding="utf-8"?>
<!-- Generator: Adobe Illustrator 27.2.0, SVG Export Plug-In . SVG Version: 6.00 Build 0)  -->
<svg version="1.1" id="Layer_1" xmlns="http://www.w3.org/2000/svg" xmlns:xlink="http://www.w3.org/1999/xlink" x="0px" y="0px"
	 viewBox="0 0 1080 1080" style="enable-background:new 0 0 1080 1080;" xml:space="preserve">
<style type="text/css">
	.st0{fill:#008080;}
</style>
<path class="st0" d="M672.2,154.1C657,169.1,305.1,524.9,282.7,547C263.3,528,173.2,439.5,161,427.4l0,0
	c-77.8-82.1-16-222.3,97.7-222.3c30.8,0,74.1,12.2,99,45.9l-51.2,54.4c-22.5-20.7-36.7-25.5-47.9-25.5c-45.6,0-71.6,53.5-43.6,89.1
	l0,0l83.3,81.8c6.3-6.5,166.5-172.1,179.9-185.8c-35-101.6-126.7-161.1-233.7-155.9C29.1,119.6-61.9,389.2,99.6,523.6
	c169.4,166.7,5.9,5.8,185.6,182.7C662.8,334.4,537.4,449,721.4,275C797.3,179.5,952,233,952,355.4c0,30.5-10.6,58.6-28.3,80.7
	c-36.8,36.3-323.5,327.1-372,375l-50.9-50c0,0,371-377.2,371-377.2c35.8-61.5-52-118.1-94.2-62.8c-8.5,8.3-433.7,428.7-441,435.8
	c10.9,10.7,208.3,205,218.5,215.1c1.9-1.9,452.7-461.2,452.7-461.2c34.3-42.4,54.9-96.5,54.9-155.3
	C1062.7,152.6,833.5,39,672.2,154.1z"/>
</svg>
