<?xml version="1.0" encoding="utf-8"?>
<!-- Generator: Adobe Illustrator 27.2.0, SVG Export Plug-In . SVG Version: 6.00 Build 0)  -->
<svg version="1.1" id="Layer_1" xmlns="http://www.w3.org/2000/svg" xmlns:xlink="http://www.w3.org/1999/xlink" x="0px" y="0px"
	 viewBox="0 0 1080 1080" style="enable-background:new 0 0 1080 1080;" xml:space="preserve">
<style type="text/css">
	.st0{fill:#FBB040;}
	.st1{fill:#F7941D;}
	.st2{fill:#FFFFFF;}
	.st3{fill:#EBEBEB;}
	.st4{fill:#008080;}
</style>
<g>
	<path class="st0" d="M723.5,228.5c-82.5,0-51.7,25.7-193.9-24.4c-139.1-49-195.2-5.2-211.3,28.3c31.6-10.3,64.7,4.4,100.2,52
		c19.8,26.6,68.6,42,55,56.3c-11.5,12.2-38-7.9-62.5-18.1c-110.8-46.4-177.8,38.6-177.8,38.6c69.2,9.2,98.9,35.9,111.6,55.9
		c5.7,9-2.1,20.3-12.6,18.8c-57.5-8-91,33.1-173.7,72.2C65.7,552,21.9,487,21.9,487c23.2,50.9,43.8,114,211.3,98.5
		c83.7-7.7,114,2.6,123.4,14.8c8,10.5-2.2,25-15.3,22.8c-52.9-8.8-92.6,55.4-92.6,55.4c59.3-20.6,89,71.5,203.6,146.6
		c110.8,72.7,229.5,72.7,271.2,72.7c184.8,0,334.6-149.8,334.6-334.6C1058.1,378.3,908.3,228.5,723.5,228.5z"/>
	
		<ellipse transform="matrix(0.7071 -0.7071 0.7071 0.7071 -186.2962 676.4911)" class="st1" cx="723.4" cy="563.1" rx="292" ry="292"/>
	<circle class="st2" cx="723.4" cy="563.1" r="236.6"/>
	<path class="st3" d="M880.1,697.6c-37.8,44.1-93.9,72-156.6,72c-114.1,0-206.5-92.4-206.5-206.4c0-62.6,27.9-118.8,72-156.6
		c-31.1,36.2-49.9,83.2-49.9,134.5c0,114,92.4,206.4,206.5,206.4C797,747.5,843.9,728.7,880.1,697.6z"/>
	<path class="st4" d="M369.1,271.1c0,0-38.6-7.7-87.6,18c-49,25.8-82.5-9.6-82.5-9.6s18,15.1,61.8-9.6S369.1,271.1,369.1,271.1z"/>
	<path class="st4" d="M270.7,620.3c0,0-29-6.4-61.5,27.5c-32.6,33.9-61-5.4-61-5.4s14.8,16.6,43.8-15.7
		C221,594.4,270.7,620.3,270.7,620.3z"/>
	<path class="st4" d="M266.7,420.4c0,0-44.5-11.2-98.2,34.8c-53.7,45.9-94.4-12.1-94.4-12.1s21.6,24.6,69.5-19.2
		S266.7,420.4,266.7,420.4z"/>
	<path class="st4" d="M911.4,331c-4.7-3.8-11.7-3.1-15.6,1.6L731.2,535.9c-2.5-0.7-5.1-1.1-7.8-1.1c-5.7,0-11,1.7-15.5,4.6
		l-113.1-75.8c-5.1-3.4-11.9-2-15.3,3c-3.4,5.1-2,11.9,3,15.3l113.1,75.8c-0.3,1.7-0.5,3.5-0.5,5.3c0,15.6,12.7,28.3,28.3,28.3
		c15.6,0,28.3-12.7,28.3-28.3c0-4.8-1.2-9.3-3.3-13.3L913,346.5C916.9,341.8,916.1,334.8,911.4,331z"/>
</g>
</svg>
