<?xml version="1.0" encoding="utf-8"?>
<!-- Generator: Adobe Illustrator 27.2.0, SVG Export Plug-In . SVG Version: 6.00 Build 0)  -->
<svg version="1.1" id="Layer_1" xmlns="http://www.w3.org/2000/svg" xmlns:xlink="http://www.w3.org/1999/xlink" x="0px" y="0px"
	 viewBox="0 0 1080 1080" style="enable-background:new 0 0 1080 1080;" xml:space="preserve">
<style type="text/css">
	.st0{fill:#008080;}
	.st1{fill:#F7941D;}
</style>
<g>
	<path class="st0" d="M685.6,219.6c111.6,50.6,188.7,154.8,203.6,277.5l159.4-19.3C1037.2,384,1000,295.2,941,221.1
		C884.4,150,810.1,95.3,725.7,62.5l9.1-35.8l-142.3,84.4l84.4,142.4L685.6,219.6z"/>
	<path class="st1" d="M221.1,139C150,195.6,95.3,269.9,62.5,354.2l-35.8-9.1l84.4,142.3l142.4-84.4l-33.9-8.7
		c50.6-111.6,154.8-188.7,277.5-203.6L477.8,31.4C384,42.8,295.2,80,221.1,139z"/>
	<path class="st1" d="M1053.3,734.9l-84.4-142.3l-142.4,84.4l33.9,8.7c-50.6,111.6-154.8,188.7-277.5,203.6l19.3,159.4
		C696,1037.2,784.8,1000,858.9,941c71.1-56.6,125.8-131,158.6-215.3L1053.3,734.9z"/>
	<path class="st0" d="M394.4,860.4c-111.6-50.6-188.7-154.8-203.6-277.5L31.4,602.2C42.8,696,80,784.8,139,858.9
		c56.6,71.1,131,125.8,215.3,158.6l-9.1,35.8l142.3-84.4l-84.4-142.4L394.4,860.4z"/>
</g>
</svg>
